# xmcd CD database file
#
# Track frame offsets:
#	150
#	15664
#	26584
#	37177
#	48000
#	57296
#	67882
#	78163
#	87294
#	98643
#	107060
#	116405
#	126062
#	137051
#	145590
#	156376
#	166995
#	176604
#	185042
#	195826
#	204675
#
# Disc length: 2847 seconds
#
# Revision: 0
# Processed by: cddbd v1.5PL3 Copyright (c) Steve Scherf et al.
# Submitted via: CDex 1.51
#
DISCID=140b1d15
DTITLE=Jimmy Murphy - Southern Roots
DYEAR=1999
DGENRE=Country
TTITLE0=Shanty Boat Blues 
TTITLE1=Hub Cap 
TTITLE2=Tears In The Eyes Of A Potato 
TTITLE3=Heart Of Brass 
TTITLE4=Big Train 
TTITLE5=He's Always The Same 
TTITLE6=Electricity 
TTITLE7=LitTLEBlack Train 
TTITLE8=John The Baptist 
TTITLE9=LitTLEDavid (Play On Your Harp) 
TTITLE10=You Better Get Ready (A.K.A $1,000,000) 
TTITLE11=Jesus Is My Only Friend 
TTITLE12=Jesus Is Coming To Reign 
TTITLE13=I Feel Jesus (My My My) 
TTITLE14=Holy Ghost Millionaire 
TTITLE15=Jesus Has Saved My Soul 
TTITLE16=I Believe 
TTITLE17=Wake Me Up Sweet Jesus 
TTITLE18=My Feet's On Solid Ground 
TTITLE19=Half A Loaf Of Bread 
TTITLE20=Take This Message To Mother 
EXTD=YEAR: 1999
EXTT0=
EXTT1=
EXTT2=
EXTT3=
EXTT4=
EXTT5=
EXTT6=
EXTT7=
EXTT8=
EXTT9=
EXTT10=
EXTT11=
EXTT12=
EXTT13=
EXTT14=
EXTT15=
EXTT16=
EXTT17=
EXTT18=
EXTT19=
EXTT20=
PLAYORDER=
